<svg width="30" height="30" viewBox="0 0 30 30" fill="none" xmlns="http://www.w3.org/2000/svg">
<path d="M15 0C6.72891 0 0 6.72891 0 15C0 23.2711 6.72891 30 15 30C23.2711 30 30 23.2711 30 15C30 6.72891 23.2711 0 15 0ZM15 1.07641C22.6773 1.07641 28.9236 7.32239 28.9236 15C28.9236 15.532 28.8909 16.0568 28.8321 16.5736C27.9051 13.5198 25.0376 10.8454 19.168 9.57126C11.9602 8.44038 14.4924 6.25483 15.8285 5.46496C15.5224 5.5052 15.4175 5.56611 15.2809 5.59321C7.67761 7.65534 10.2023 10.0722 10.2023 10.0722C16.0107 15.6439 11.257 20.4204 4.36333 23.9713C2.31461 21.5465 1.07614 18.416 1.07614 15C1.07641 7.32239 7.32239 1.07641 15 1.07641ZM12.69 8.22736C12.7281 8.45112 12.8574 8.68212 13.0817 8.91447C13.1133 8.9472 13.1265 8.98422 13.1222 9.02152C13.1176 9.06874 13.0835 9.11542 13.0331 9.14842C12.9927 9.17727 12.944 9.19215 12.8944 9.19081C12.8403 9.19194 12.788 9.17158 12.749 9.1342C12.4785 8.84927 12.3259 8.57561 12.284 8.2998C12.2658 8.21313 12.3455 8.12648 12.4573 8.10367C12.5692 8.08596 12.6771 8.14043 12.69 8.22736ZM12.5204 7.42836C12.523 7.40746 12.5314 7.38768 12.5445 7.37122C12.6752 7.17536 12.8491 6.99104 13.0613 6.81155C13.1356 6.75091 13.2655 6.74152 13.3443 6.7933C13.4232 6.84616 13.4243 6.94677 13.3438 7.01304C13.1573 7.16704 13.0084 7.3307 12.8995 7.49544C12.859 7.55366 12.7806 7.58988 12.701 7.58988C12.6742 7.59028 12.6476 7.58555 12.6226 7.57593C12.5512 7.55366 12.5126 7.49544 12.5204 7.42836ZM13.7741 26.7072C13.8788 26.6092 14.0569 26.6025 14.171 26.6908C14.2855 26.7815 14.2946 26.9339 14.1897 27.0324C13.8137 27.3892 13.4323 27.7403 13.0457 28.0857C12.9894 28.1343 12.9173 28.1606 12.8429 28.1597C12.7729 28.1597 12.7028 28.1377 12.6484 28.0927C12.5362 28.0004 12.533 27.8466 12.6403 27.7506C13.0237 27.4088 13.4017 27.0609 13.7741 26.7072ZM13.4549 9.64987C13.4561 9.60314 13.4755 9.55871 13.5088 9.52592C13.5858 9.45482 13.7224 9.4355 13.8053 9.49265C14.1157 9.6936 14.4473 9.87014 14.6678 9.98497C14.7298 10.0196 14.7609 10.0722 14.7561 10.1355C14.7522 10.1674 14.7396 10.1977 14.7196 10.223C14.6963 10.249 14.6677 10.2698 14.6358 10.284C14.6038 10.2981 14.5692 10.3053 14.5342 10.3051C14.4926 10.3051 14.4578 10.2949 14.4234 10.2806C14.0607 10.092 13.7755 9.9281 13.526 9.75987C13.5074 9.7472 13.4915 9.73094 13.4793 9.71205C13.4671 9.69316 13.4588 9.67202 13.4549 9.64987ZM17.8351 22.2167C17.9188 22.1037 18.094 22.0713 18.2228 22.1424C18.3543 22.2143 18.3926 22.3637 18.3089 22.4759C18.006 22.8841 17.6921 23.284 17.3675 23.6751C17.3125 23.7417 17.2258 23.7771 17.1383 23.7771C17.0815 23.7771 17.0248 23.7621 16.9752 23.732C16.8486 23.6537 16.8196 23.5029 16.9092 23.3945C17.2285 23.0104 17.5372 22.6176 17.8351 22.2167ZM17.2033 11.4673C17.2406 11.4276 17.2897 11.4009 17.3433 11.391C17.3969 11.3811 17.4523 11.3886 17.5013 11.4123C17.8633 11.6039 18.1726 11.7807 18.4474 11.9586C18.5008 11.9945 18.5305 12.0466 18.5287 12.1018C18.529 12.122 18.5251 12.142 18.5173 12.1605C18.5095 12.1791 18.4979 12.1959 18.4833 12.2097C18.4618 12.2343 18.4352 12.2541 18.4054 12.2676C18.3756 12.2811 18.3433 12.2881 18.3105 12.288C18.2655 12.2872 18.2214 12.2746 18.1828 12.2513C17.882 12.0604 17.5738 11.8813 17.2591 11.7144C17.2368 11.7032 17.2174 11.6869 17.2026 11.6669C17.1877 11.6469 17.1777 11.6236 17.1735 11.5991C17.1679 11.5763 17.1677 11.5525 17.1728 11.5297C17.178 11.5068 17.1884 11.4855 17.2033 11.4673ZM19.4816 19.7443C19.5544 19.6252 19.7237 19.5801 19.8616 19.6421C19.9987 19.7046 20.0515 19.8511 19.9791 19.9694C19.73 20.373 19.4743 20.7725 19.212 21.1676L19.1699 21.2323C19.1186 21.3112 19.0229 21.3549 18.9252 21.3549C18.8774 21.3554 18.8301 21.3448 18.787 21.324C18.6515 21.2589 18.6038 21.111 18.6802 20.9948L18.7226 20.9302C18.962 20.5637 19.2246 20.1645 19.4816 19.7443ZM19.0328 12.603C19.1138 12.5354 19.2549 12.5298 19.3403 12.5974C19.6254 12.8342 19.8882 13.0967 20.1253 13.3816L20.1315 13.3859C20.1934 13.472 20.169 13.5839 20.0695 13.6427C20.0312 13.6642 19.9881 13.6755 19.9442 13.6754C19.8696 13.6754 19.802 13.6478 19.7644 13.596C19.5448 13.3313 19.3005 13.088 19.0349 12.8694C18.9499 12.7959 18.9456 12.6763 19.0328 12.603ZM20.7193 17.1491C20.7561 17.0189 20.9068 16.9401 21.0592 16.9723C21.2098 17.0036 21.3023 17.1343 21.265 17.2644C21.143 17.6948 20.9616 18.1509 20.7113 18.658C20.6659 18.7492 20.5618 18.8053 20.4526 18.8053C20.4161 18.8053 20.3788 18.7994 20.3429 18.7865C20.2001 18.7336 20.1331 18.5917 20.194 18.4688C20.4325 17.9856 20.6039 17.5539 20.7193 17.1491ZM20.5696 14.1989C20.708 14.139 20.8781 14.1852 20.9484 14.3038C21.2146 14.7496 21.3785 15.2489 21.4282 15.7657C21.4408 15.8983 21.3259 16.0152 21.1711 16.0262L21.1472 16.027C21.0034 16.027 20.88 15.9313 20.8677 15.8049C20.8259 15.3519 20.6821 14.9142 20.4473 14.5246C20.3764 14.4049 20.4314 14.2592 20.5696 14.1989ZM16.609 11.1623C16.5703 11.2165 16.4966 11.2465 16.418 11.2465C16.4 11.2465 16.3764 11.2465 16.3522 11.2409V11.2465L16.3171 11.2267C16.3053 11.2213 16.2996 11.2165 16.294 11.2165C16.1883 11.1623 16.0778 11.1073 15.9669 11.0517C15.7625 10.9525 15.5605 10.8535 15.3635 10.7553C15.3419 10.7446 15.3229 10.7293 15.3077 10.7106C15.2926 10.6918 15.2817 10.67 15.2758 10.6466C15.2608 10.6023 15.2772 10.5535 15.3034 10.5141C15.3684 10.4363 15.5014 10.4067 15.5996 10.4507C15.7435 10.5243 15.8878 10.5975 16.0386 10.6707C16.2071 10.7502 16.3756 10.8336 16.5446 10.9181C16.609 10.9476 16.6484 11.0072 16.6447 11.0668C16.6415 11.1012 16.6292 11.1342 16.609 11.1623ZM15.9173 24.5329C16.0134 24.4269 16.1907 24.4105 16.3125 24.4918C16.4346 24.5739 16.4552 24.7261 16.36 24.8312C16.0135 25.2111 15.6592 25.5838 15.2973 25.949C15.242 26.0067 15.1631 26.0351 15.0837 26.0351C15.0196 26.0351 14.9547 26.0163 14.9018 25.9774C14.7832 25.8902 14.769 25.7384 14.8693 25.6367C15.2256 25.2754 15.575 24.9074 15.9173 24.5329Z" fill="#4D65F1"/>
</svg>
